<svg xmlns="http://www.w3.org/2000/svg" width="218" height="34" viewBox="0 0 218 34"><path d="M23.973,31.259,13.908,9.175V8.857a6.147,6.147,0,0,0-.04-.675,5.824,5.824,0,0,0-.04-.715V7.15A6.236,6.236,0,0,0,14.027,5a1.069,1.069,0,0,0-.792-.953,6.8,6.8,0,0,0-2.219-.318l.2-.794q.634.04,1.545.079.951.04,1.981.04,1.862,0,3.21-.119l8.4,19.3-.119.675q-.119.636-.317,1.668-.159.993-.317,2.185-.159,1.152-.357,2.185-.159.993-.277,1.668l-.119.635ZM36.138,1.867a3.124,3.124,0,0,0-1.862.6,6.134,6.134,0,0,0-1.466,1.509q-1.823,2.7-3.725,9.493t-4.24,17.794l-.555-1.112q.594-2.661,1.268-5.72.673-3.1,1.427-6.2.792-3.1,1.585-5.918.832-2.82,1.7-5.044A19.769,19.769,0,0,1,32.1,3.654a7.155,7.155,0,0,1,1.783-1.787,4.108,4.108,0,0,1,2.5-.755,3.664,3.664,0,0,1,2.774.993,3.254,3.254,0,0,1,.991,2.383A3.593,3.593,0,0,1,39.11,7.07,3.408,3.408,0,0,1,36.534,8.1a2.937,2.937,0,0,1-2.021-.636A2.251,2.251,0,0,1,33.8,5.759a3.437,3.437,0,0,1,.872-2.343,4.267,4.267,0,0,1,2.1-1.39.544.544,0,0,0-.277-.119A1.469,1.469,0,0,0,36.138,1.867ZM4,33.245a3.185,3.185,0,0,0,1.9-.6A4.761,4.761,0,0,0,7.331,31.1a24.174,24.174,0,0,0,2.3-5.72q1.189-3.892,2.377-9.413,1.229-5.521,2.457-12.115l.674.834Q14.5,7.944,13.79,11.32q-.674,3.336-1.387,6.554-.713,3.178-1.466,5.918T9.431,28.558A12.474,12.474,0,0,1,7.965,31.5a8.685,8.685,0,0,1-1.7,1.708A3.828,3.828,0,0,1,3.725,34a3.609,3.609,0,0,1-2.734-.993A3.254,3.254,0,0,1,0,30.624a3.525,3.525,0,0,1,3.606-3.615,2.74,2.74,0,0,1,2.021.675,2.127,2.127,0,0,1,.713,1.668A3.437,3.437,0,0,1,5.468,31.7a4.639,4.639,0,0,1-2.14,1.39.879.879,0,0,0,.277.119A1.662,1.662,0,0,0,4,33.245Z" fill="#fff"/><path d="M43.047,10.764A2.822,2.822,0,0,0,41.1,11.876a14.42,14.42,0,0,0-1.981,2.9,31.178,31.178,0,0,0-1.743,4.091,38.082,38.082,0,0,0-1.228,4.687,25.4,25.4,0,0,0-.436,4.568,4.932,4.932,0,0,0,.317,2.065,1.123,1.123,0,0,0,1.03.635,2.759,2.759,0,0,0,1.9-1.033,13.714,13.714,0,0,0,1.942-2.86,26.9,26.9,0,0,0,1.7-4.012,33.965,33.965,0,0,0,1.268-4.687,24.326,24.326,0,0,0,.475-4.687A4.621,4.621,0,0,0,44,11.32,1.028,1.028,0,0,0,43.047,10.764Zm-12.64,14.3a17.383,17.383,0,0,1,.476-3.892,18.506,18.506,0,0,1,1.545-4.051,15.628,15.628,0,0,1,2.536-3.575,11.69,11.69,0,0,1,3.606-2.582,10.8,10.8,0,0,1,4.676-.993,6.368,6.368,0,0,1,4.715,1.668,6.537,6.537,0,0,1,1.7,4.885,16.117,16.117,0,0,1-.515,3.892,17.119,17.119,0,0,1-1.506,4.051,15.786,15.786,0,0,1-2.576,3.615,11.943,11.943,0,0,1-3.606,2.582,10.915,10.915,0,0,1-4.636.953,6.508,6.508,0,0,1-4.755-1.668A6.631,6.631,0,0,1,30.406,25.063Z" fill="#fff"/><path d="M51.459,30.5a2.911,2.911,0,0,0,.674.238,8.058,8.058,0,0,0,.872.04,3.293,3.293,0,0,0,2.377-.874,3.359,3.359,0,0,0,.951-2.542,6.969,6.969,0,0,0-.555-2.661,16,16,0,0,0-1.664-3.019q-.911-1.43-1.7-2.78a6.255,6.255,0,0,1-.753-3.1,5.324,5.324,0,0,1,.872-3.019,5.928,5.928,0,0,1,2.457-2.065,9.155,9.155,0,0,1,3.883-.755,10.925,10.925,0,0,1,2.813.357,5.081,5.081,0,0,1,2.3,1.231,3.36,3.36,0,0,1,.911,2.542,3.654,3.654,0,0,1-.277,1.311,2.636,2.636,0,0,1-.793,1.192,2.012,2.012,0,0,1-1.347.437,1.957,1.957,0,0,1-1.585-.715,3.052,3.052,0,0,1-.594-1.946,4.809,4.809,0,0,1,.357-1.906,5.234,5.234,0,0,1,.872-1.39,2.624,2.624,0,0,0-1.387-.318,2.971,2.971,0,0,0-2.259.874,3.741,3.741,0,0,0-.832,2.5,4.879,4.879,0,0,0,.317,1.748,8.946,8.946,0,0,0,.872,1.628q.555.834,1.189,1.867a23.061,23.061,0,0,1,1.743,3.336,7.115,7.115,0,0,1,.594,2.82,5.53,5.53,0,0,1-.911,3.1,6.223,6.223,0,0,1-2.576,2.184,9.122,9.122,0,0,1-3.963.794,11.319,11.319,0,0,1-3.17-.437,5.407,5.407,0,0,1-2.457-1.43,3.991,3.991,0,0,1-.911-2.741,3.448,3.448,0,0,1,.594-1.986,1.805,1.805,0,0,1,1.625-.874,1.879,1.879,0,0,1,1.664.914,3.8,3.8,0,0,1,.594,2.185,5.222,5.222,0,0,1-.317,1.867Q51.657,29.949,51.459,30.5Z" fill="#fff"/><path d="M84.7,10.764A4.357,4.357,0,0,0,81.8,12.035a11.839,11.839,0,0,0-2.576,3.337A22.224,22.224,0,0,0,76.771,25.5a4.6,4.6,0,0,0,.832,3.058,2.809,2.809,0,0,0,2.179.914,5.13,5.13,0,0,0,2.576-.755,8.77,8.77,0,0,0,2.655-2.741l.793.318a12.8,12.8,0,0,1-2.061,2.542,10.328,10.328,0,0,1-2.893,2.026,8.648,8.648,0,0,1-3.685.755,6.928,6.928,0,0,1-4.557-1.47A5.752,5.752,0,0,1,70.828,25.5a15.324,15.324,0,0,1,.594-4.091,19.828,19.828,0,0,1,1.783-4.171,16.068,16.068,0,0,1,2.813-3.694,13.067,13.067,0,0,1,3.764-2.582A10.524,10.524,0,0,1,84.34,9.97a5.2,5.2,0,0,1,3.487,1.112,3.314,3.314,0,0,1,1.347,2.7,4.669,4.669,0,0,1-.515,2.105,4.809,4.809,0,0,1-1.426,1.668,3.278,3.278,0,0,1-1.981.635,2.368,2.368,0,0,1-1.625-.6,2.311,2.311,0,0,1-.634-1.708,3.94,3.94,0,0,1,1.07-2.78A5.14,5.14,0,0,1,86.6,11.558a1.967,1.967,0,0,0-.792-.6A2.685,2.685,0,0,0,84.7,10.764Z" fill="#fff"/><path d="M93.41,29.472A2.179,2.179,0,0,0,94.8,28.8a9.05,9.05,0,0,0,1.545-1.946,22.316,22.316,0,0,0,1.545-3.178,34.964,34.964,0,0,0,1.387-4.329L98.4,23.673a19.489,19.489,0,0,1-2.179,4.687,7.809,7.809,0,0,1-2.536,2.5,5.677,5.677,0,0,1-2.813.755,4.117,4.117,0,0,1-3.328-1.311,5.357,5.357,0,0,1-1.109-3.575,15.406,15.406,0,0,1,.713-4.488,23.481,23.481,0,0,1,4.795-8.46A14.52,14.52,0,0,1,95.272,11,6.938,6.938,0,0,1,98.759,9.97,2.314,2.314,0,0,1,100.78,11a4.678,4.678,0,0,1,.436,3.217l-.436.238a4.155,4.155,0,0,0-.159-2.224,1.123,1.123,0,0,0-1.109-.794,2.811,2.811,0,0,0-1.783.914,12.054,12.054,0,0,0-1.9,2.5,27.069,27.069,0,0,0-1.783,3.615,26.012,26.012,0,0,0-1.268,4.21,20.31,20.31,0,0,0-.475,4.329,4.645,4.645,0,0,0,.277,1.907A.888.888,0,0,0,93.41,29.472Zm8.4-18.907q1.7-.04,3.091-.159a26.505,26.505,0,0,0,2.655-.437l-5.191,17.715q-.12.516-.2.993a1.206,1.206,0,0,0,.118.715.726.726,0,0,0,.634.278,1.792,1.792,0,0,0,1.15-.6,7.265,7.265,0,0,0,1.307-2.542l.713-1.906h.753l-.99,2.9a6.429,6.429,0,0,1-1.427,2.5,5.075,5.075,0,0,1-1.862,1.231,5.7,5.7,0,0,1-1.942.358,3.342,3.342,0,0,1-2.932-1.231,3.521,3.521,0,0,1-.555-2.145,14.14,14.14,0,0,1,.555-2.979Z" fill="#fff"/><path d="M109.125,30.5a2.921,2.921,0,0,0,.674.238,8.056,8.056,0,0,0,.872.04,3.291,3.291,0,0,0,2.377-.874A3.359,3.359,0,0,0,114,27.367a6.983,6.983,0,0,0-.554-2.661,15.994,15.994,0,0,0-1.665-3.019q-.911-1.43-1.7-2.78a6.253,6.253,0,0,1-.752-3.1,5.325,5.325,0,0,1,.871-3.019,5.926,5.926,0,0,1,2.457-2.065,9.156,9.156,0,0,1,3.883-.755,10.932,10.932,0,0,1,2.814.357,5.085,5.085,0,0,1,2.3,1.231,3.362,3.362,0,0,1,.911,2.542,3.65,3.65,0,0,1-.277,1.311,2.639,2.639,0,0,1-.793,1.192,2.009,2.009,0,0,1-1.347.437,1.957,1.957,0,0,1-1.585-.715,3.053,3.053,0,0,1-.594-1.946,4.823,4.823,0,0,1,.356-1.906,5.257,5.257,0,0,1,.872-1.39,2.624,2.624,0,0,0-1.387-.318,2.968,2.968,0,0,0-2.258.874,3.735,3.735,0,0,0-.832,2.5,4.864,4.864,0,0,0,.317,1.748,8.915,8.915,0,0,0,.871,1.628q.555.834,1.189,1.867a23.021,23.021,0,0,1,1.743,3.336,7.1,7.1,0,0,1,.6,2.82,5.527,5.527,0,0,1-.912,3.1,6.22,6.22,0,0,1-2.575,2.184,9.123,9.123,0,0,1-3.963.794,11.323,11.323,0,0,1-3.17-.437,5.409,5.409,0,0,1-2.456-1.43,3.989,3.989,0,0,1-.912-2.741,3.443,3.443,0,0,1,.6-1.986,1.8,1.8,0,0,1,1.624-.874,1.88,1.88,0,0,1,1.665.914,3.8,3.8,0,0,1,.594,2.185,5.228,5.228,0,0,1-.317,1.867Q109.324,29.949,109.125,30.5Z" fill="#fff"/><path d="M127.389,29.472a2.178,2.178,0,0,0,1.387-.675,9.069,9.069,0,0,0,1.546-1.946,22.371,22.371,0,0,0,1.545-3.178,35,35,0,0,0,1.387-4.329l-.872,4.329A19.494,19.494,0,0,1,130.2,28.36a7.815,7.815,0,0,1-2.536,2.5,5.677,5.677,0,0,1-2.814.755,4.117,4.117,0,0,1-3.328-1.311,5.356,5.356,0,0,1-1.11-3.575,15.391,15.391,0,0,1,.714-4.488,23.484,23.484,0,0,1,4.794-8.46A14.518,14.518,0,0,1,129.252,11a6.936,6.936,0,0,1,3.487-1.033A2.314,2.314,0,0,1,134.76,11a4.678,4.678,0,0,1,.435,3.217l-.435.238a4.155,4.155,0,0,0-.159-2.224,1.123,1.123,0,0,0-1.109-.794,2.812,2.812,0,0,0-1.784.914,12.054,12.054,0,0,0-1.9,2.5,27.107,27.107,0,0,0-1.783,3.615,26.043,26.043,0,0,0-1.268,4.21,20.309,20.309,0,0,0-.475,4.329,4.646,4.646,0,0,0,.277,1.907A.889.889,0,0,0,127.389,29.472Zm8.4-18.907q1.7-.04,3.091-.159a26.438,26.438,0,0,0,2.654-.437l-5.19,17.715q-.12.516-.2.993a1.213,1.213,0,0,0,.119.715.725.725,0,0,0,.634.278,1.787,1.787,0,0,0,1.149-.6,7.247,7.247,0,0,0,1.308-2.542l.713-1.906h.753l-.99,2.9a6.429,6.429,0,0,1-1.427,2.5,5.075,5.075,0,0,1-1.862,1.231,5.7,5.7,0,0,1-1.942.358,3.341,3.341,0,0,1-2.932-1.231,3.526,3.526,0,0,1-.555-2.145,14.149,14.149,0,0,1,.555-2.979Z" fill="#fff"/><path d="M146.355,31.061h-5.588L145.6,13.9a3.288,3.288,0,0,0,.158-.953,1.61,1.61,0,0,0-.079-.755q-.118-.278-.594-.278a1.669,1.669,0,0,0-1.268.715,8.715,8.715,0,0,0-1.229,2.423l-.753,2.026h-.753l1.07-3.019a7.2,7.2,0,0,1,1.427-2.463,4.679,4.679,0,0,1,1.862-1.231,5.7,5.7,0,0,1,2.061-.4,3.48,3.48,0,0,1,2.06.516,2.274,2.274,0,0,1,.951,1.311,5.145,5.145,0,0,1,.159,1.827,12.04,12.04,0,0,1-.317,1.907Zm9.589-16.484a9.374,9.374,0,0,0,.277-1.192,1.611,1.611,0,0,0,0-.874q-.118-.318-.594-.318a2.822,2.822,0,0,0-1.942,1.112,15.076,15.076,0,0,0-2.14,3.058,43.1,43.1,0,0,0-2.139,4.727q-1.071,2.741-2.021,6l.2-2.741a57.6,57.6,0,0,1,3.249-8.421,12.9,12.9,0,0,1,3.408-4.568,6.621,6.621,0,0,1,4.121-1.39,3.419,3.419,0,0,1,1.981.477,2.274,2.274,0,0,1,.951,1.311,4.947,4.947,0,0,1,.119,1.907,13.224,13.224,0,0,1-.4,2.3l-4.24,15.093H151.11Zm10.58,0a4.648,4.648,0,0,0,.317-1.708q0-.675-.555-.675a2.754,2.754,0,0,0-1.744.953,13.174,13.174,0,0,0-2.06,2.82,36.751,36.751,0,0,0-2.3,4.766q-1.189,2.86-2.378,6.752l.079-2.145q1.427-4.528,2.7-7.507a23.085,23.085,0,0,1,2.615-4.687,8.383,8.383,0,0,1,2.774-2.463,6.715,6.715,0,0,1,3.051-.715,3.168,3.168,0,0,1,2.457.834,2.99,2.99,0,0,1,.753,2.145,8.842,8.842,0,0,1-.516,3.019l-3.883,11.717a2.476,2.476,0,0,0-.2,1.589.778.778,0,0,0,.713.4,1.837,1.837,0,0,0,1.149-.556,7.13,7.13,0,0,0,1.348-2.582l.713-1.906h.753l-.991,2.9a6.141,6.141,0,0,1-1.466,2.542,4.6,4.6,0,0,1-1.9,1.191,5.8,5.8,0,0,1-1.981.358,4.306,4.306,0,0,1-1.942-.4,2.779,2.779,0,0,1-1.228-1.033,3.445,3.445,0,0,1-.476-2.026,11.354,11.354,0,0,1,.634-2.86Z" fill="#fff"/><path d="M184.848,10.764a2.822,2.822,0,0,0-1.942,1.112,14.461,14.461,0,0,0-1.981,2.9,31.138,31.138,0,0,0-1.743,4.091,38.062,38.062,0,0,0-1.229,4.687,25.453,25.453,0,0,0-.436,4.568,4.939,4.939,0,0,0,.317,2.065,1.125,1.125,0,0,0,1.031.635,2.762,2.762,0,0,0,1.9-1.033,13.729,13.729,0,0,0,1.941-2.86,26.91,26.91,0,0,0,1.7-4.012,34.005,34.005,0,0,0,1.268-4.687,24.327,24.327,0,0,0,.476-4.687,4.616,4.616,0,0,0-.357-2.224A1.027,1.027,0,0,0,184.848,10.764Zm-12.64,14.3a17.381,17.381,0,0,1,.475-3.892,18.576,18.576,0,0,1,1.545-4.051,15.659,15.659,0,0,1,2.536-3.575,11.707,11.707,0,0,1,3.606-2.582,10.8,10.8,0,0,1,4.676-.993,6.367,6.367,0,0,1,4.715,1.668,6.537,6.537,0,0,1,1.7,4.885,16.086,16.086,0,0,1-.515,3.892,17.115,17.115,0,0,1-1.506,4.051,15.768,15.768,0,0,1-2.575,3.615,11.947,11.947,0,0,1-3.606,2.582,10.916,10.916,0,0,1-4.636.953,6.508,6.508,0,0,1-4.755-1.668A6.629,6.629,0,0,1,172.208,25.063Z" fill="#fff"/><path d="M193.26,30.5a2.921,2.921,0,0,0,.674.238,8.056,8.056,0,0,0,.872.04,3.293,3.293,0,0,0,2.377-.874,3.359,3.359,0,0,0,.951-2.542,6.965,6.965,0,0,0-.555-2.661,15.983,15.983,0,0,0-1.664-3.019q-.912-1.43-1.7-2.78a6.254,6.254,0,0,1-.753-3.1,5.326,5.326,0,0,1,.872-3.019,5.926,5.926,0,0,1,2.457-2.065,9.153,9.153,0,0,1,3.883-.755,10.924,10.924,0,0,1,2.813.357,5.083,5.083,0,0,1,2.3,1.231,3.361,3.361,0,0,1,.911,2.542,3.651,3.651,0,0,1-.277,1.311,2.639,2.639,0,0,1-.793,1.192,2.009,2.009,0,0,1-1.347.437,1.956,1.956,0,0,1-1.585-.715,3.053,3.053,0,0,1-.594-1.946,4.806,4.806,0,0,1,.356-1.906,5.231,5.231,0,0,1,.872-1.39,2.626,2.626,0,0,0-1.387-.318,2.972,2.972,0,0,0-2.259.874,3.746,3.746,0,0,0-.832,2.5,4.886,4.886,0,0,0,.317,1.748,8.986,8.986,0,0,0,.872,1.628q.555.834,1.189,1.867a23.122,23.122,0,0,1,1.743,3.336,7.1,7.1,0,0,1,.6,2.82,5.527,5.527,0,0,1-.912,3.1,6.22,6.22,0,0,1-2.575,2.184,9.126,9.126,0,0,1-3.963.794,11.323,11.323,0,0,1-3.17-.437,5.407,5.407,0,0,1-2.457-1.43,3.994,3.994,0,0,1-.911-2.741,3.449,3.449,0,0,1,.594-1.986,1.806,1.806,0,0,1,1.625-.874,1.879,1.879,0,0,1,1.664.914,3.792,3.792,0,0,1,.6,2.185,5.228,5.228,0,0,1-.317,1.867Q193.458,29.949,193.26,30.5Z" fill="#fff"/><path d="M209.3,23.156a39.218,39.218,0,0,0,1.07-6.077q.316-3.019.436-5.759.159-2.78.4-5.124a12.58,12.58,0,0,1,.278-2.145,7.958,7.958,0,0,1,.713-2.026,4.2,4.2,0,0,1,1.228-1.47,3.116,3.116,0,0,1,1.9-.556,2.491,2.491,0,0,1,2.061.834,3.106,3.106,0,0,1,.594,2.343,15.636,15.636,0,0,1-1.109,4.131q-.912,2.224-2.219,4.766-1.269,2.542-2.536,5.362a38.2,38.2,0,0,0-2.1,5.839Zm-3.764,6.077a3.554,3.554,0,0,1,1.109-2.661,3.871,3.871,0,0,1,2.734-1.072,2.876,2.876,0,0,1,1.982.635,2.271,2.271,0,0,1,.713,1.787,3.55,3.55,0,0,1-.515,1.827,3.9,3.9,0,0,1-1.427,1.351,3.736,3.736,0,0,1-1.941.516,2.815,2.815,0,0,1-1.942-.635A2.222,2.222,0,0,1,205.541,29.234Z" fill="#fff"/></svg>