<svg width="150" height="143" viewBox="0 0 150 143" fill="none" xmlns="http://www.w3.org/2000/svg">
<path d="M74.858 71.9726V101H61.3502C61.2544 93.2402 61.3502 76.4752 61.3502 68.8112C61.3502 60.1892 56.9434 55.016 50.908 55.016C45.3516 55.016 40.7532 58.7522 38.454 64.596C37.975 65.6498 36.538 63.638 37.6876 60.8598C40.0826 55.016 45.7348 52.142 52.4408 52.142C64.9906 52.142 74.858 56.2614 74.858 71.9726ZM27.916 101V53.1958H41.328V101H27.916ZM117.515 62.3926C118.569 66.991 113.587 71.1104 109.276 71.1104C106.977 61.1472 99.6006 53.9622 91.3618 56.3572C84.6558 58.2732 83.6978 69.1944 88.0088 81.0736C91.8408 91.5158 97.2056 98.2218 103.912 98.2218C111.48 98.2218 118.377 89.7914 118.377 77.4332H121.251C121.251 88.3544 116.366 101.958 98.8342 101.958C83.8894 101.958 73.9262 90.0788 73.9262 77.05C73.9262 62.1052 83.8894 52.142 98.8342 52.142C106.977 52.142 116.078 55.8782 117.515 62.3926Z" fill="white"/>
<path d="M66.8359 45.2578C65.6641 44.1641 65 42.6016 65 40.9609V40.7656C65 38.0312 66.9531 35.6875 69.6484 35.2578C71.4453 34.9453 73.2422 35.5312 74.5312 36.7812L75 37.25L75.4688 36.7812C76.7188 35.5312 78.5547 34.9453 80.3125 35.2578C83.0078 35.6875 85 38.0312 85 40.7656V40.9609C85 42.6016 84.2969 44.1641 83.125 45.2578L76.0547 51.8594C75.7812 52.1328 75.3906 52.25 75 52.25C74.5703 52.25 74.1797 52.1328 73.9062 51.8594L66.8359 45.2578Z" fill="white"/>
</svg>
