<svg width="630" height="127" viewBox="0 0 630 127" fill="none" xmlns="http://www.w3.org/2000/svg">
<path d="M88.858 58.9726V88H75.3502C75.2544 80.2402 75.3502 63.4752 75.3502 55.8112C75.3502 47.1892 70.9434 42.016 64.908 42.016C59.3516 42.016 54.7532 45.7522 52.454 51.596C51.975 52.6498 50.538 50.638 51.6876 47.8598C54.0826 42.016 59.7348 39.142 66.4408 39.142C78.9906 39.142 88.858 43.2614 88.858 58.9726ZM41.916 88V40.1958H55.328V88H41.916ZM92.7162 64.05C92.7162 49.1052 102.679 39.142 117.624 39.142C132.569 39.142 142.532 49.1052 142.532 64.05C142.532 78.9948 132.569 88.958 117.624 88.958C102.679 88.958 92.7162 78.9948 92.7162 64.05ZM106.799 68.0736C111.11 80.0486 118.678 87.042 125.097 84.7428C131.611 82.3478 132.761 72.193 128.45 60.218C124.139 48.3388 116.57 41.058 110.152 43.3572C103.637 45.7522 102.488 56.1944 106.799 68.0736ZM175.542 77.5578C175.542 66.445 147.281 71.0434 147.281 53.4162C147.281 43.3572 155.903 39.142 166.728 39.142C176.308 39.142 186.08 42.016 186.08 48.8178C186.08 54.5658 178.32 57.2482 174.009 57.2482C175.063 48.4346 173.051 42.016 166.728 42.016C162.609 42.016 159.735 44.9858 159.735 48.722C159.735 63.092 187.996 58.781 187.996 73.3426C187.996 86.084 174.297 88.958 165.962 88.958C158.394 88.958 146.323 86.084 146.323 77.941C146.323 70.0854 154.083 68.7442 158.394 68.7442C155.52 73.3426 155.52 86.084 165.962 86.084C171.039 86.084 175.542 83.21 175.542 77.5578Z" fill="white"/>
<path d="M192.836 66.2578C191.664 65.1641 191 63.6016 191 61.9609V61.7656C191 59.0312 192.953 56.6875 195.648 56.2578C197.445 55.9453 199.242 56.5312 200.531 57.7812L201 58.25L201.469 57.7812C202.719 56.5312 204.555 55.9453 206.312 56.2578C209.008 56.6875 211 59.0312 211 61.7656V61.9609C211 63.6016 210.297 65.1641 209.125 66.2578L202.055 72.8594C201.781 73.1328 201.391 73.25 201 73.25C200.57 73.25 200.18 73.1328 199.906 72.8594L192.836 66.2578Z" fill="white"/>
<path d="M239.908 39.4385C248.051 39.4385 257.152 43.1751 258.589 49.6895C259.643 54.2877 254.661 58.407 250.351 58.4072C248.051 48.444 240.674 41.2593 232.436 43.6543C225.73 45.5704 224.772 56.4911 229.083 68.3701C232.915 78.8123 238.279 85.5185 244.985 85.5186C250.01 85.5186 254.738 81.8014 257.349 75.6865C257.579 77.1477 257.956 78.5637 258.464 79.9219C255.15 85.2889 249.373 89.2548 239.908 89.2549C224.963 89.2549 215 77.3755 215 64.3467C215 49.402 224.963 39.4385 239.908 39.4385Z" fill="white"/>
<path d="M291.411 88.2968V84.9438C288.058 86.764 284.034 88.2968 280.01 88.2968C268.131 88.2968 262 82.8362 262 74.0226C262 58.8862 281.064 60.419 291.411 55.4374V54.3836C291.411 46.9112 289.782 42.696 284.321 42.696C278.573 42.696 274.55 47.3902 276.753 57.4492C272.442 57.4492 266.982 56.2038 266.982 49.2104C266.982 42.696 275.604 39.4388 284.321 39.4388C294.189 39.4388 304.823 43.8456 304.823 55.8206V88.2968H291.411ZM291.411 82.0698V58.1198C283.363 62.2392 275.508 62.7182 275.508 74.0226C275.508 81.1118 279.052 84.4648 283.747 84.4648C286.142 84.4648 288.728 83.6026 291.411 82.0698Z" fill="white"/>
<path d="M338.861 77.8546C338.861 66.7418 310.6 71.3402 310.6 53.713C310.6 43.654 319.222 39.4388 330.047 39.4388C339.627 39.4388 349.399 42.3128 349.399 49.1146C349.399 54.8626 341.639 57.545 337.328 57.545C338.382 48.7314 336.37 42.3128 330.047 42.3128C325.928 42.3128 323.054 45.2826 323.054 49.0188C323.054 63.3888 351.315 59.0778 351.315 73.6394C351.315 86.3808 337.615 89.2548 329.281 89.2548C321.713 89.2548 309.642 86.3809 309.642 78.2379C309.642 70.3822 317.402 69.041 321.713 69.041C318.839 73.6394 318.839 86.3808 329.281 86.3808C334.358 86.3808 338.861 83.5068 338.861 77.8546Z" fill="white"/>
<path d="M385.478 88.2968V84.9438C382.125 86.764 378.101 88.2968 374.078 88.2968C362.199 88.2968 356.067 82.8362 356.067 74.0226C356.067 58.8862 375.132 60.419 385.478 55.4374V54.3836C385.478 46.9112 383.849 42.696 378.389 42.696C372.641 42.696 368.617 47.3902 370.821 57.4492C366.51 57.4492 361.049 56.2038 361.049 49.2104C361.049 42.696 369.671 39.4388 378.389 39.4388C388.256 39.4388 398.89 43.8456 398.89 55.8206V88.2968H385.478ZM385.478 82.0698V58.1198C377.431 62.2392 369.575 62.7182 369.575 74.0226C369.575 81.1118 373.12 84.4648 377.814 84.4648C380.209 84.4648 382.796 83.6026 385.478 82.0698Z" fill="white"/>
<path d="M444.903 56.6828V88.2968H431.395C431.3 80.537 431.395 61.1854 431.395 53.5214C431.395 47.486 430.821 42.3128 424.785 42.3128C419.229 42.3128 416.546 46.049 414.247 51.8928C413.768 52.9466 412.331 50.9348 413.481 48.1566C415.876 42.3128 419.612 39.4388 426.318 39.4388C438.868 39.4388 444.903 43.654 444.903 56.6828ZM403.709 88.2968V40.4926H417.121V88.2968H403.709ZM471.248 56.6828V88.2968H457.74C457.645 80.537 457.74 61.1854 457.74 53.5214C457.74 47.486 457.166 42.3128 451.13 42.3128C445.574 42.3128 442.891 46.049 440.592 51.8928C440.113 52.9466 438.676 50.9348 439.826 48.1566C442.221 42.3128 445.957 39.4388 452.663 39.4388C465.213 39.4388 471.248 43.654 471.248 56.6828Z" fill="white"/>
<path d="M476.049 64.3468C476.049 49.402 486.013 39.4388 500.957 39.4388C515.902 39.4388 525.865 49.402 525.865 64.3468C525.865 79.2916 515.902 89.2548 500.957 89.2548C486.013 89.2548 476.049 79.2916 476.049 64.3468ZM490.132 68.3704C494.443 80.3454 502.011 87.3389 508.43 85.0396C514.944 82.6446 516.094 72.4898 511.783 60.5148C507.472 48.6356 499.904 41.3548 493.485 43.654C486.971 46.049 485.821 56.4912 490.132 68.3704Z" fill="white"/>
<path d="M557.833 77.8546C557.833 66.7418 529.572 71.3402 529.572 53.713C529.572 43.654 538.194 39.4388 549.02 39.4388C558.6 39.4388 568.371 42.3128 568.371 49.1146C568.371 54.8626 560.611 57.545 556.3 57.545C557.354 48.7314 555.342 42.3128 549.02 42.3128C544.9 42.3128 542.026 45.2826 542.026 49.0188C542.026 63.3888 570.287 59.0778 570.287 73.6394C570.287 86.3808 556.588 89.2548 548.253 89.2548C540.685 89.2548 528.614 86.3809 528.614 78.2379C528.614 70.3822 536.374 69.041 540.685 69.041C537.811 73.6394 537.811 86.3808 548.253 86.3808C553.331 86.3808 557.833 83.5068 557.833 77.8546Z" fill="white"/>
<path d="M584.076 28.1783C585.989 28.3358 587.651 29.2754 589.061 30.9969C590.472 32.7184 591.063 34.9612 590.835 37.7252C590.209 45.3264 586 56.5 582.94 75.1234C581.5 74.5 578.482 74.3231 577.5 74.5C577.5 55.3231 575.228 44 575.846 36.4909C576.074 33.727 576.944 31.6046 578.457 30.1238C580.024 28.6473 581.897 27.9988 584.076 28.1783Z" fill="white"/>
<path d="M573.479 83.3833C573.659 81.1981 574.34 79.7083 575.523 78.9138C576.707 78.1194 578.069 77.7856 579.611 77.9126C581.215 78.0446 582.535 78.5993 583.573 79.5766C584.672 80.559 585.131 82.1428 584.951 84.328C584.776 86.4541 584.064 87.9414 582.814 88.7899C581.626 89.6434 580.23 90.0041 578.626 89.8721C577.084 89.7451 575.797 89.1635 574.765 88.1271C573.732 87.0907 573.304 85.5095 573.479 83.3833Z" fill="white"/>
</svg>
